<?xml version="1.0" encoding="utf-8"?>
<svg viewBox="0 0 500 100" xmlns="http://www.w3.org/2000/svg">
  <path d="M 13.125 27.63 L 45.125 27.63 L 45.125 29.806 L 30.341 29.806 L 30.341 72.43 L 27.909 72.43 L 27.909 29.806 L 13.125 29.806 Z M 83.982 27.63 L 86.606 27.63 L 70.606 54.062 L 70.606 72.43 L 68.174 72.43 L 68.174 54.062 L 52.046 27.63 L 54.734 27.63 L 69.39 51.694 Z M 110.499 51.054 Q 114.979 51.054 117.667 49.71 Q 120.355 48.366 121.539 45.934 Q 122.723 43.502 122.723 40.43 Q 122.723 35.502 119.971 32.654 Q 117.219 29.806 110.499 29.806 L 98.851 29.806 L 98.851 51.054 Z M 125.155 40.43 Q 125.155 43.374 124.259 45.742 Q 123.363 48.11 121.507 49.774 Q 119.651 51.438 116.899 52.334 Q 114.147 53.23 110.499 53.23 L 98.851 53.23 L 98.851 72.43 L 96.419 72.43 L 96.419 27.63 L 110.499 27.63 Q 115.875 27.63 119.075 29.294 Q 122.275 30.958 123.715 33.838 Q 125.155 36.718 125.155 40.43 Z M 164.276 29.806 L 138.484 29.806 L 138.484 48.366 L 157.876 48.366 L 157.876 50.542 L 138.484 50.542 L 138.484 70.254 L 164.276 70.254 L 164.276 72.43 L 136.052 72.43 L 136.052 27.63 L 164.276 27.63 Z M 190.339 27.63 Q 198.147 27.63 203.427 30.318 Q 208.707 33.006 211.427 37.998 Q 214.147 42.99 214.147 50.094 Q 214.147 57.134 211.427 62.126 Q 208.707 67.118 203.427 69.774 Q 198.147 72.43 190.339 72.43 L 176.771 72.43 L 176.771 27.63 Z M 190.339 70.254 Q 201.027 70.254 206.339 64.878 Q 211.651 59.502 211.651 50.094 Q 211.651 40.622 206.339 35.214 Q 201.027 29.806 190.339 29.806 L 179.203 29.806 L 179.203 70.254 Z" style="fill: rgb(51, 51, 51);"/>
  <path d="M 304.844 27.63 L 333.068 27.63 L 333.068 29.806 L 307.276 29.806 L 307.276 48.366 L 326.668 48.366 L 326.668 50.542 L 307.276 50.542 L 307.276 72.43 L 304.844 72.43 Z M 361.302 72.878 Q 356.566 72.878 352.598 71.214 Q 348.63 69.55 345.686 66.51 Q 342.742 63.47 341.142 59.278 Q 339.542 55.086 339.542 50.03 Q 339.542 44.974 341.142 40.782 Q 342.742 36.59 345.686 33.55 Q 348.63 30.51 352.598 28.846 Q 356.566 27.182 361.302 27.182 Q 365.974 27.182 369.942 28.846 Q 373.91 30.51 376.822 33.55 Q 379.734 36.59 381.366 40.782 Q 382.998 44.974 382.998 50.03 Q 382.998 55.086 381.366 59.278 Q 379.734 63.47 376.822 66.51 Q 373.91 69.55 369.942 71.214 Q 365.974 72.878 361.302 72.878 Z M 361.302 70.702 Q 366.678 70.702 370.998 68.206 Q 375.318 65.71 377.91 61.07 Q 380.502 56.43 380.502 50.03 Q 380.502 43.566 377.91 38.958 Q 375.318 34.35 370.998 31.854 Q 366.678 29.358 361.302 29.358 Q 355.862 29.358 351.51 31.854 Q 347.158 34.35 344.598 38.958 Q 342.038 43.566 342.038 50.03 Q 342.038 56.43 344.598 61.07 Q 347.158 65.71 351.51 68.206 Q 355.862 70.702 361.302 70.702 Z M 396.26 27.63 L 396.26 70.254 L 418.212 70.254 L 418.212 72.43 L 393.828 72.43 L 393.828 27.63 Z M 428.086 27.63 L 430.518 27.63 L 430.518 72.43 L 428.086 72.43 Z M 463.24 72.878 Q 458.504 72.878 454.536 71.214 Q 450.568 69.55 447.624 66.51 Q 444.68 63.47 443.08 59.278 Q 441.48 55.086 441.48 50.03 Q 441.48 44.974 443.08 40.782 Q 444.68 36.59 447.624 33.55 Q 450.568 30.51 454.536 28.846 Q 458.504 27.182 463.24 27.182 Q 467.912 27.182 471.88 28.846 Q 475.848 30.51 478.76 33.55 Q 481.672 36.59 483.304 40.782 Q 484.936 44.974 484.936 50.03 Q 484.936 55.086 483.304 59.278 Q 481.672 63.47 478.76 66.51 Q 475.848 69.55 471.88 71.214 Q 467.912 72.878 463.24 72.878 Z M 463.24 70.702 Q 468.616 70.702 472.936 68.206 Q 477.256 65.71 479.848 61.07 Q 482.44 56.43 482.44 50.03 Q 482.44 43.566 479.848 38.958 Q 477.256 34.35 472.936 31.854 Q 468.616 29.358 463.24 29.358 Q 457.8 29.358 453.448 31.854 Q 449.096 34.35 446.536 38.958 Q 443.976 43.566 443.976 50.03 Q 443.976 56.43 446.536 61.07 Q 449.096 65.71 453.448 68.206 Q 457.8 70.702 463.24 70.702 Z" style="fill: rgb(51, 51, 51);"/>
  <path d="M 243.028 65.198 L 241.236 65.198 L 223.636 50.03 L 241.236 34.862 L 243.028 34.862 L 225.364 50.03 Z M 265.468 21.23 L 266.94 21.23 L 251.516 78.83 L 250.108 78.83 Z M 291.616 50.03 L 274.016 34.862 L 275.808 34.862 L 293.408 50.03 L 275.808 65.198 L 274.016 65.198 Z" style="fill: rgb(51, 51, 51);"/>
</svg>
